<svg width="18" height="19" viewBox="0 0 18 19" fill="black" xmlns="http://www.w3.org/2000/svg">
<path d="M2.24972 10.2106C1.99882 10.5398 2.0621 11.01 2.3911 11.2611L4.60932 12.9541C5.02771 13.2734 5.62201 13.2138 5.9686 12.8177L10.5706 7.5583C10.8434 7.24643 10.8117 6.77235 10.4996 6.49968C10.1879 6.22725 9.71434 6.25898 9.4417 6.57055L5.76312 10.7746C5.41652 11.1708 4.8222 11.2304 4.40381 10.911L3.30083 10.0692C2.97155 9.81783 2.50084 9.88118 2.24972 10.2106ZM15.8206 7.55829C16.0934 7.24643 16.0617 6.77235 15.7496 6.49968C15.4379 6.22725 14.9643 6.25898 14.6917 6.57056L10.6413 11.1997C10.5111 11.3485 10.2868 11.3685 10.1323 11.245C9.97293 11.1175 9.74042 11.1434 9.6129 11.3027L9.37513 11.5998C9.11618 11.9234 9.16858 12.3957 9.49218 12.6546L9.84431 12.9364C10.2622 13.2707 10.8692 13.2168 11.2217 12.8141L15.8206 7.55829Z" />
</svg>
