<svg width="16" height="17" viewBox="0 0 16 17" fill="black" xmlns="http://www.w3.org/2000/svg">
<path d="M5.15133 4.70867L2.47133 2.02867L1.52867 2.97133L13.5287 14.9713L14.4713 14.0287L13.1247 12.682C14.1241 11.5184 14.6712 10.0339 14.666 8.5C14.666 5.77267 13.018 3.53133 10.6667 2.5V3.83333C12.258 4.75733 13.3327 6.53133 13.3327 8.5C13.3292 9.68439 12.938 10.835 12.2187 11.776L11.3613 10.9187C11.7627 10.1907 12 9.29333 12 8.5C12 7.31933 11.4833 5.9 10.6667 5.16667V10.224L9.33333 8.89067V1.92133L5.15133 4.70867ZM2.66667 11.8333H4.46467L9.33333 15.0787V12.5807L2.068 5.31533C1.84792 5.42549 1.66273 5.59456 1.53303 5.80371C1.40332 6.01286 1.33419 6.2539 1.33333 6.5V10.5C1.33333 11.2353 1.93133 11.8333 2.66667 11.8333Z" />
</svg>
