<svg width="24" height="24" viewBox="0 0 24 24" fill="white" xmlns="http://www.w3.org/2000/svg">
<path d="M8.707 19.707L17.2929 11.1211C17.6834 10.7306 17.6834 10.0974 17.2929 9.70689L14.2931 6.70711C13.9026 6.31658 13.2694 6.31658 12.8789 6.70711L4.293 15.293C4.16506 15.4211 4.07418 15.5814 4.03 15.757L3.28704 19.5389C3.15004 20.2362 3.76375 20.8499 4.46108 20.7129L8.242 19.97C8.418 19.926 8.579 19.835 8.707 19.707ZM21 7.414C21.3749 7.03895 21.5856 6.53033 21.5856 6C21.5856 5.46967 21.3749 4.96106 21 4.586L19.414 3C19.0389 2.62506 18.5303 2.41443 18 2.41443C17.4697 2.41443 16.9611 2.62506 16.586 3L15.7071 3.87889C15.3166 4.26942 15.3166 4.90258 15.7071 5.29311L18.7069 8.2929C19.0974 8.68342 19.7306 8.68342 20.1211 8.29289L21 7.414Z"/>
</svg>
