<svg width="18" height="18" viewBox="0 0 18 18" fill="none" xmlns="http://www.w3.org/2000/svg">
<path d="M12.6742 5.28821C12.3814 4.99537 11.9066 4.99534 11.6137 5.28815L8.96176 7.9395L6.31051 5.28825C6.01766 4.9954 5.54286 4.9954 5.25001 5.28825V5.28825C4.95716 5.58109 4.95716 6.0559 5.25001 6.34875L7.90126 9L5.25001 11.6512C4.95716 11.9441 4.95716 12.4189 5.25001 12.7117V12.7117C5.54286 13.0046 6.01766 13.0046 6.31051 12.7117L8.96176 10.0605L11.6137 12.7118C11.9066 13.0046 12.3814 13.0046 12.6742 12.7118V12.7118C12.9671 12.4189 12.9671 11.9441 12.6742 11.6512L10.023 9L12.6742 6.34878C12.9671 6.05591 12.9671 5.58108 12.6742 5.28821V5.28821Z" fill="black"/>
</svg>
